<svg xmlns="http://www.w3.org/2000/svg" width="700" height="700" version="1.1" viewBox="150 150 450 450">
  <g>
    <path
      d="m275.14 327.75h157.88c3.7383 0 6.7656-3.0273 6.7656-6.7656s-3.0273-6.7656-6.7656-6.7656h-157.88c-3.7383 0-6.7656 3.0273-6.7656 6.7656s3.0273 6.7656 6.7656 6.7656z" />
    <path
      d="m553.09 544.54c6.1016 0 11.484-2.8828 15.047-7.293 2.6992-3.3242 4.3867-7.4961 4.3867-12.098v-214.99c0-10.742-8.707-19.484-19.418-19.484h-80.961v-46.875c0-3.7383-3.0273-6.7656-6.7656-6.7656h-41.836v-8.082c0-38.676-31.449-69.441-69.496-69.441-38.289 0-69.438 31.152-69.438 69.445v8.082h-41.836c-3.7383 0-6.7656 3.0273-6.7656 6.7656v46.875l-37.109-0.003906c-10.711 0-19.418 8.7422-19.418 19.484 0 5.4336-0.007813 168.9-0.007813 214.96 0 10.711 8.707 19.418 19.418 19.418h126.62v34.43h-24.586c-3.7383 0-6.7656 3.0273-6.7656 6.7656s3.0273 6.7656 6.7656 6.7656h150.13c3.7383 0 6.7656-3.0273 6.7656-6.7656s-3.0273-6.7656-6.7656-6.7656h-24.59v-34.43zm5.8867-19.418c0 0.80469-0.16797 1.5703-0.46094 2.2734-0.91016 2.0781-3.0195 3.5742-5.4141 3.5742h-354.2c-3.2422 0-5.8867-2.6094-5.8867-5.8203v-29.969h365.97zm-93.973-104.74c-20.707-0.20312-37.547-17.219-37.547-37.922 0-20.902 17.012-37.918 37.922-37.918 20.902 0 37.918 17.012 37.918 37.918 0 20.91-17.016 37.922-38.293 37.922zm-166.86-191.43c0-30.836 25.078-55.914 55.906-55.914 30.566 0 55.969 24.699 55.969 55.914v8.082l-111.88-0.003906zm-48.602 21.609h35.07v11.758c-8.3711 2.8398-14.449 10.688-14.449 20.008 0 11.699 9.5156 21.215 21.215 21.215 11.699 0 21.215-9.5156 21.215-21.215 0-9.3203-6.0781-17.168-14.449-20.008v-11.758h111.88v11.73c-8.418 2.8125-14.543 10.68-14.543 20.035 0 11.699 9.5156 21.215 21.215 21.215 11.699 0 21.215-9.5156 21.215-21.215 0-9.2891-6.0312-17.109-14.355-19.977v-11.789h35.07v46.746c0 0.046875-0.027344 0.085937-0.027344 0.13281s0.027344 0.085938 0.027344 0.13281v27.758c0 2.5547 1.4688 4.6914 3.5547 5.8438-17.484 1.0859-32.602 10.914-41.051 25.184-0.17188-3.5859-3.0742-6.4531-6.7031-6.4531l-139.28-0.003906c-3.7383 0-6.7656 3.0273-6.7656 6.7656s3.0273 6.7656 6.7656 6.7656h139.27c1.3906 0 2.6094-0.51953 3.6836-1.2383-2.6758 6.2227-4.1719 13.066-4.1719 20.258 0 1.8867 0.12109 3.7461 0.32031 5.582-1.2422-1.4844-3.0352-2.4844-5.125-2.4844l-133.98 0.003907c-3.7383 0-6.7656 3.0273-6.7656 6.7656 0 3.7383 3.0273 6.7656 6.7656 6.7656h133.98c2.9453 0 5.3828-1.9023 6.3164-4.5273 2.5977 10.629 8.5 20 16.641 26.926-0.37891-0.066406-0.72266-0.22656-1.1172-0.22656h-155.82c-3.7383 0-6.7656 3.0273-6.7656 6.7656 0 3.7383 3.0273 6.7656 6.7656 6.7656h155.82c3.7383 0 6.7656-3.0273 6.7656-6.7656 0-0.98828-0.23437-1.9102-0.61328-2.7578 7.125 4.7109 15.5 7.6953 24.551 8.4219-1.6875 0.89844-3.0117 2.4219-3.457 4.4375-1.6836 7.6445-8.332 12.984-16.152 12.984h-175.96c-9.1289 0-16.559-7.4258-16.559-16.559zm41.801 24.09c0.011719 0 0.019531 0.007812 0.03125 0.007812s0.019531-0.007812 0.03125-0.007812c4.2188 0.019531 7.6523 3.4531 7.6523 7.6758 0 4.2344-3.4492 7.6836-7.6836 7.6836s-7.6836-3.4492-7.6836-7.6836c0.003906-4.2227 3.4336-7.6562 7.6523-7.6758zm125.35-0.007813c4.2344 0 7.6836 3.4492 7.6836 7.6836s-3.4492 7.6836-7.6836 7.6836-7.6836-3.4492-7.6836-7.6836 3.4453-7.6836 7.6836-7.6836zm-217.79 29.559h37.109v130.35c0 16.59 13.496 30.086 30.086 30.086h175.95c14.227 0 26.301-9.707 29.367-23.594 0.66016-2.9844-0.82031-5.8516-3.3516-7.2734 27.117-1.4141 48.758-23.855 48.758-51.316 0-27.285-21.363-49.613-48.234-51.285 2.0859-1.1523 3.5547-3.293 3.5547-5.8438l0.003907-21.121h80.961c3.1914 0 5.8867 2.7305 5.8867 5.9531v171.49h-365.98v-171.49c0-3.2812 2.6406-5.9531 5.8867-5.9531zm214.04 274.76h-73.898v-34.43h73.898z" />
    <path
      d="m475.76 517.84c2.6016-2.6133 2.6289-6.7695 0-9.5391-3.2734-2.9258-7.2891-2.3164-9.6055 0-2.5391 2.5391-2.6875 6.9922 0 9.5391 2.5 2.5 6.7109 2.8789 9.6055 0z" />
    <path
      d="m493.15 517.84c2.2539 2.5 6.7891 2.8945 9.5352 0 2.5586-2.2852 2.832-6.7227 0-9.5391-2.8867-2.9023-7.6758-2.3125-9.5352 0-2.6953 2.6797-2.7305 6.8398 0 9.5391z" />
    <path
      d="m520.14 517.84c2.1445 2.375 6.5469 2.9922 9.5391 0 2.5547-2.5547 2.7461-6.793 0-9.5391-3.0273-3.0391-7.8359-2.1172-9.5391 0-2.5156 2.2695-2.8164 7 0 9.5391z" />
    <path
      d="m491.89 362.61c-2.6445-2.6445-6.9258-2.6445-9.5664 0l-25.344 25.344-8.5547-8.5547c-2.6445-2.6445-6.9258-2.6445-9.5664 0-2.6445 2.6445-2.6445 6.9258 0 9.5664l13.34 13.34c1.3203 1.3203 3.0508 1.9805 4.7852 1.9805 1.7305 0 3.4609-0.66016 4.7852-1.9805l30.129-30.129c2.6367-2.6406 2.6367-6.9219-0.007813-9.5664z" />
  </g>
</svg>