<svg version="1.0" xmlns="http://www.w3.org/2000/svg" width="1920" height="1920" viewBox="0 0 1920 1920"
  preserveAspectRatio="xMidYMid meet">

  <g transform="translate(0.000000,1920.000000) scale(0.100000,-0.100000)" fill="currentColor" stroke="none">
    <path d="M8833 13027 c-1855 -1855 -3373 -3379 -3373 -3386 0 -13 1393 -1411
1407 -1411 4 0 1210 1202 2680 2672 l2672 2672 27 -24 c73 -68 3899 -3902
3902 -3910 2 -5 -753 -766 -1677 -1690 -925 -925 -1681 -1687 -1681 -1693 0
-22 1383 -1397 1405 -1397 13 0 823 803 2404 2384 1905 1905 2382 2387 2377
2402 -9 27 -6738 6754 -6756 6754 -8 0 -1533 -1518 -3387 -3373z" />
    <path d="M3492 13007 c-1854 -1854 -3372 -3376 -3372 -3381 0 -5 1521 -1530
3380 -3389 l3381 -3381 3379 3379 c1859 1859 3380 3385 3380 3390 0 13 -1392
1405 -1405 1405 -6 0 -1209 -1199 -2675 -2665 -1466 -1466 -2672 -2665 -2680
-2665 -16 0 -3930 3909 -3930 3925 0 6 1199 1209 2665 2675 1466 1466 2665
2672 2665 2680 0 20 -1380 1400 -1400 1400 -8 0 -1533 -1518 -3388 -3373z" />
    <path d="M11517 4992 c-383 -383 -697 -702 -697 -707 0 -6 315 -325 699 -709
643 -643 701 -698 718 -685 53 42 1383 1381 1383 1393 0 12 -1378 1397 -1397
1403 -4 2 -322 -311 -706 -695z" />
  </g>
</svg>