<svg version="1.0" xmlns="http://www.w3.org/2000/svg" width="1920" height="1920" viewBox="0 0 1920 1920"
	preserveAspectRatio="xMidYMid meet">

	<g transform="translate(0.000000,1920.000000) scale(0.100000,-0.100000)" fill="currentColor" stroke="none">
		<path d="M2255 12496 c-532 -65 -946 -240 -1249 -527 -205 -194 -357 -464
-410 -726 -50 -246 -35 -548 36 -758 111 -325 362 -628 715 -859 271 -178 602
-317 1106 -465 235 -70 388 -125 507 -183 249 -124 429 -293 487 -460 42 -120
55 -297 32 -410 -16 -77 -72 -189 -129 -257 -57 -68 -199 -168 -287 -201 -167
-63 -324 -84 -557 -77 -587 19 -919 259 -1015 734 -12 56 -21 129 -21 162 l0
61 -541 0 -540 0 6 -82 c12 -164 26 -257 51 -359 125 -496 442 -870 950 -1122
407 -203 881 -291 1389 -258 586 38 1023 204 1347 511 193 181 340 429 394
659 116 498 1 996 -316 1376 -286 342 -715 593 -1350 789 -469 145 -609 198
-790 296 -231 126 -364 267 -417 442 -24 80 -21 234 6 333 78 283 329 466 705
515 107 14 317 9 421 -10 219 -41 413 -149 531 -298 82 -103 150 -273 169
-418 3 -27 8 -68 11 -91 l5 -43 530 0 529 0 0 73 c-1 154 -47 384 -111 544
-127 320 -355 595 -654 788 -250 161 -582 278 -900 315 -148 18 -516 21 -640
6z" />
		<path d="M11687 12495 c-280 -40 -571 -152 -772 -298 -93 -67 -232 -203 -309
-302 -188 -241 -326 -564 -395 -925 -55 -285 -54 -269 -59 -1265 -4 -939 0
-1067 33 -1310 49 -347 161 -678 314 -925 291 -467 746 -728 1343 -770 550
-39 1048 119 1377 435 158 153 260 297 364 515 133 279 207 581 237 970 8 99
10 443 8 1080 -4 882 -6 943 -25 1080 -79 550 -251 943 -547 1249 -221 228
-492 369 -856 446 -112 24 -151 27 -370 31 -174 2 -274 -1 -343 -11z m445
-870 c103 -18 159 -40 240 -92 199 -130 315 -383 358 -775 5 -54 10 -130 10
-171 l0 -73 -717 -535 c-394 -294 -732 -544 -751 -557 l-33 -24 4 689 c5 713
7 750 50 933 88 369 275 565 587 613 57 9 180 5 252 -8z m615 -2467 c-3 -343
-11 -663 -17 -713 -44 -389 -163 -653 -347 -771 -124 -79 -231 -108 -398 -107
-362 0 -586 204 -689 625 -30 120 -59 350 -54 426 l3 50 745 555 c410 306 749
556 754 556 5 1 6 -264 3 -621z" />
		<path d="M6723 11987 l-1223 -442 0 -469 0 -468 23 6 c12 3 333 117 712 254
l690 247 3 -2167 2 -2168 545 0 545 0 0 2825 0 2825 -37 -1 c-23 0 -512 -172
-1260 -442z" />
		<path d="M14860 9605 l0 -2825 545 0 545 0 2 1823 3 1823 375 -870 c206 -478
560 -1298 785 -1820 l411 -951 547 -3 547 -2 0 2825 0 2825 -550 0 -550 0 -2
-1812 -3 -1813 -519 1205 c-285 663 -635 1478 -779 1813 l-261 607 -548 0
-548 0 0 -2825z" />
	</g>
</svg>